{"title":"90 Minutes In Heaven 2015 Movies HDRip XviD AAC ESubs New ☻rDX☻","uid":12777993,"size":745284122,"categoryP":"video","categoryS":"movies","magnet":"?xt=urn:btih:e6e3e897a26794e30d3363977c316a84b4c50f83&amp;dn=90+Minutes+In+Heaven+2015+Movies+HDRip+XviD+AAC+ESubs+New+%E2%98%BBrDX%E2%98%BB&amp;tr=udp%3A%2F%2Ftracker.leechers-paradise.org%3A6969&amp;tr=udp%3A%2F%2Fzer0day.ch%3A1337&amp;tr=udp%3A%2F%2Fopen.demonii.com%3A1337&amp;tr=udp%3A%2F%2Ftracker.coppersurfer.tk%3A6969&amp;tr=udp%3A%2F%2Fexodus.desync.com%3A6969","seeders":0,"leechers":0,"uploader":"basicssom","files":3,"time":1447763400,"description":"----------------------------------------------------------------\r\n90 Minutes In Heaven 2015 English Movies HDRip XviD AAC ESubs New Source with Sample ~ ☻rDX☻\r\n\r\nSCREEN SHOTS &amp; POSTER:\r\n  \nhttp://doctorhosts.com/2015/11/90MinutesInHeaven/11.html  \nhttp://doctorhosts.com/2015/11/90MinutesInHeaven/1.html  \nhttp://doctorhosts.com/2015/11/90MinutesInHeaven/2.html  \nhttp://doctorhosts.com/2015/11/90MinutesInHeaven/3.html  \nhttp://doctorhosts.com/2015/11/90MinutesInHeaven/4.html  \nhttp://doctorhosts.com/2015/11/90MinutesInHeaven/5.html  \nhttp://doctorhosts.com/2015/11/90MinutesInHeaven/6.html  \nhttp://doctorhosts.com/2015/11/90MinutesInHeaven/7.html  \nhttp://doctorhosts.com/2015/11/90MinutesInHeaven/8.html  \nhttp://doctorhosts.com/2015/11/90MinutesInHeaven/9.html  \nhttp://doctorhosts.com/2015/11/90MinutesInHeaven/10.html\r\n\r\nFormat                                   : Matroska\r\nFormat version                           : Version 4 / Version 2\r\nFile size                                : 692 MiB\r\nDuration                                 : 2h 1mn\r\nOverall bit rate                         : 793 Kbps\r\nMovie name                               : 90 Minutes In Heaven 2015 English Movies HDRip XviD AAC ESubs New Source ~ rDX ~\r\n\r\nVideo\r\nID                                       : 1\r\nFormat                                   : MPEG-4 Visual\r\nFormat profile                           : Advanced   \r\nFormat settings, BVOP                    : Yes\r\nFormat settings, QPel                    : No\r\nFormat settings, GMC                     : No warppoints\r\nFormat settings, Matrix                  : Default (H.263)\r\nCodec ID                                 : V_MS/VFW/FOURCC / XVID\r\nCodec ID/Hint                            : XviD\r\nDuration                                 : 2h 1mn\r\nBit rate                                 : 665 Kbps\r\nWidth                                    : 640 pixels\r\nHeight                                   : 272 pixels\r\nDisplay aspect ratio                     : 2.35:1\r\nFrame rate mode                          : Constant\r\nFrame rate                               : 23.976 fps\r\nColor space                              : YUV\r\nChroma subsampling                       : 4:2:0\r\nBit depth                                : 8 bits\r\nScan type                                : Progressive\r\nCompression mode                         : Lossy\r\nBits/(Pixel*Frame)                       : 0.159\r\nStream size                              : 580 MiB (84%)\r\nTitle                                    : ~ rDX ~\r\nWriting library                          : XviD 67\r\nDefault                                  : Yes\r\nForced                                   : No\r\n\r\nAudio\r\nID                                       : 2\r\nFormat                                   : MPEG Audio\r\nFormat version                           : Version 1\r\nFormat profile                           : Layer 3\r\nMode                                     : Joint stereo\r\nCodec ID                                 : A_MPEG/L3\r\nCodec ID/Hint                            : MP3\r\nDuration                                 : 2h 1mn\r\nBit rate mode                            : Constant\r\nBit rate                                 : 112 Kbps\r\nChannel(s)                               : 2 channels\r\nSampling rate                            : 48.0 KHz\r\nCompression mode                         : Lossy\r\nStream size                              : 97.7 MiB (14%)\r\nTitle                                    : ~ rDX ~\r\nWriting library                          : LAME3.99r\r\nEncoding settings                        : -m j -V 4 -q 3 -lowpass 15.6 -b 112\r\nDefault                                  : Yes\r\nForced                                   : No\r\n\r\nIMDB                                      \nhttp://www.imdb.com/title/tt4337690/","torrent":{"xt":"urn:btih:e6e3e897a26794e30d3363977c316a84b4c50f83","amp;dn":"90+Minutes+In+Heaven+2015+Movies+HDRip+XviD+AAC+ESubs+New+%E2%98%BBrDX%E2%98%BB","amp;tr":["udp%3A%2F%2Ftracker.leechers-paradise.org%3A6969","udp%3A%2F%2Fzer0day.ch%3A1337","udp%3A%2F%2Fopen.demonii.com%3A1337","udp%3A%2F%2Ftracker.coppersurfer.tk%3A6969","udp%3A%2F%2Fexodus.desync.com%3A6969"],"infoHash":"e6e3e897a26794e30d3363977c316a84b4c50f83","infoHashBuffer":{"type":"Buffer","data":[230,227,232,151,162,103,148,227,13,51,99,151,124,49,106,132,180,197,15,131]},"announce":[],"urlList":[]}}